<svg width="19" height="19" viewBox="0 0 19 19" fill="none" xmlns="http://www.w3.org/2000/svg">
<path d="M17.6968 0H16.0109C15.6104 0 15.2733 0.295038 15.2311 0.716522L14.8307 4.72062H1.00605C0.689934 4.72062 0.415969 4.86813 0.205228 5.09995C0.0155602 5.35284 -0.0476623 5.66895 0.0366344 5.96399L2.29157 14.7941C2.39694 15.2366 2.79735 15.5527 3.26098 15.5527H13.9877C14.051 15.5527 14.1353 15.5527 14.1985 15.5317C14.2406 15.5317 14.2617 15.5527 14.3039 15.5527C14.3249 15.5527 14.346 15.5527 14.3671 15.5527C14.6621 15.5527 14.915 15.3209 14.9361 15.0259L14.9782 14.6676L16.0109 4.74169H15.9898L16.348 1.15908H17.6968C18.0129 1.15908 18.2869 0.90619 18.2869 0.569003C18.2869 0.231816 18.034 0 17.6968 0ZM1.19571 5.8797H14.7043L13.8402 14.3937H3.38743L1.19571 5.8797Z" fill="black"/>
<path d="M5.17872 18.9999C6.10983 18.9999 6.86465 18.2451 6.86465 17.314C6.86465 16.3829 6.10983 15.6281 5.17872 15.6281C4.2476 15.6281 3.49278 16.3829 3.49278 17.314C3.49278 18.2451 4.2476 18.9999 5.17872 18.9999Z" fill="black"/>
<path d="M12.1332 18.9999C13.0643 18.9999 13.8191 18.2451 13.8191 17.314C13.8191 16.3829 13.0643 15.6281 12.1332 15.6281C11.2021 15.6281 10.4472 16.3829 10.4472 17.314C10.4472 18.2451 11.2021 18.9999 12.1332 18.9999Z" fill="black"/>
</svg>
