<svg width="20" height="20" viewBox="0 0 20 20" fill="none" xmlns="http://www.w3.org/2000/svg">
<path d="M18.88 16.7601L14.64 12.5201C14.26 12.1401 13.66 12.1401 13.28 12.5001L11.42 10.6601C12.28 9.62007 12.82 8.28007 12.82 6.82007C12.82 3.52007 10.14 0.820068 6.82001 0.820068C3.50001 0.820068 0.820007 3.50007 0.820007 6.82007C0.820007 10.1401 3.50001 12.8201 6.82001 12.8201C8.26001 12.8201 9.60001 12.3001 10.64 11.4401L12.5 13.2801L12.48 13.3001C12.1 13.6801 12.1 14.3201 12.48 14.7001L16.72 18.9201C17.1 19.3001 17.74 19.3001 18.12 18.9201L18.88 18.1601C19.26 17.7601 19.26 17.1401 18.88 16.7601ZM1.94001 6.82007C1.94001 4.12007 4.14001 1.92007 6.84001 1.92007C9.54001 1.92007 11.74 4.12007 11.74 6.82007C11.74 9.52007 9.54001 11.7201 6.84001 11.7201C4.14001 11.7201 1.94001 9.50007 1.94001 6.82007Z" fill="#828282"/>
</svg>
