<svg width="62" height="36" viewBox="0 0 62 36" fill="none" xmlns="http://www.w3.org/2000/svg">
<path fill-rule="evenodd" clip-rule="evenodd" d="M15.7715 27.534L50.6023 27.5644C47.4066 25.43 37.785 24.3593 33.1859 24.3597C31.8962 24.3598 30.1749 24.448 28.3022 24.6224C28.5015 23.2273 28.5183 9.24548 28.3206 8.21226C25.236 8.75173 26.0274 12.108 26.0264 15.2423C26.0253 18.4404 26.0767 21.6774 26.0185 24.871C21.9144 25.3824 17.6291 26.2746 15.7715 27.534ZM34.1898 12.3469H37.2327C37.1221 9.61312 36.939 6.98535 39.8107 6.66668L39.8128 23.3463L37.2804 23.1115C37.205 20.3253 37.2545 17.4621 37.2654 14.6528H34.1895L34.1887 22.9462L31.0691 22.9865C31.0672 18.7705 31.0676 14.5542 31.0695 10.3381C31.071 6.86266 30.0213 0.76584 34.191 1.00694L34.1898 12.3469ZM22.0465 23.9958C24.5993 24.054 24.0653 23.3325 24.0636 20.9883L24.0619 12.1463C23.0971 12.0285 22.3548 12.6903 22.1374 13.4797C21.9455 14.1754 22.0627 22.7987 22.0465 23.9958ZM44.3282 24.006L44.3192 12.1212C41.6506 12.0148 42.3097 15.733 42.3097 17.9706C42.3095 24.1176 41.7485 23.9979 44.3282 24.006Z" fill="#FEFEFE"/>
<path fill-rule="evenodd" clip-rule="evenodd" d="M15.6655 27.534L50.4962 27.5644C47.3005 25.43 37.679 24.3593 33.0799 24.3597C31.7902 24.3598 30.0689 24.448 28.1962 24.6224C28.3955 23.2273 28.4123 9.24548 28.2145 8.21226C25.13 8.75173 25.9214 12.108 25.9204 15.2423C25.9193 18.4404 25.9707 21.6774 25.9124 24.871C21.8083 25.3824 17.5231 26.2746 15.6655 27.534ZM34.0838 12.3469H37.1266C37.016 9.61312 36.833 6.98535 39.7047 6.66668L39.7068 23.3463L37.1744 23.1115C37.099 20.3253 37.1485 17.4621 37.1594 14.6528H34.0835L34.0827 22.9462L30.963 22.9865C30.9612 18.7705 30.9616 14.5542 30.9635 10.3381C30.965 6.86266 29.9152 0.76584 34.085 1.00694L34.0838 12.3469ZM21.9405 23.9958C24.4932 24.054 23.9593 23.3325 23.9576 20.9883L23.9559 12.1463C22.9911 12.0285 22.2487 12.6903 22.0313 13.4797C21.8395 14.1754 21.9567 22.7987 21.9405 23.9958ZM44.2222 24.006L44.2132 12.1212C41.5445 12.0148 42.2037 15.733 42.2037 17.9706C42.2035 24.1176 41.6425 23.9979 44.2222 24.006Z" fill="black" stroke="black" stroke-width="0.216"/>
<path fill-rule="evenodd" clip-rule="evenodd" d="M11.6858 35.4607V35.8674H8.33273V30.4478H9.33699V35.4607H11.6858ZM13.2973 35.8674H12.3014V30.4478H13.2973V35.8674ZM19.0987 33.336V35.1633C18.7792 35.4413 18.4486 35.6502 18.1056 35.7899C17.7625 35.9296 17.407 36.0002 17.0391 36.0002C16.2313 36.0002 15.577 35.7388 15.0762 35.2159C14.5769 34.693 14.3265 34.0083 14.3265 33.1603C14.3265 32.3525 14.5782 31.6789 15.0832 31.1394C15.5867 30.6013 16.2119 30.3315 16.9575 30.3315C17.4125 30.3315 17.8054 30.4242 18.1401 30.611C18.4735 30.7977 18.7502 31.0771 18.9687 31.4492L18.645 31.6761C18.4763 31.3469 18.2688 31.0993 18.0225 30.9347C17.775 30.7701 17.4886 30.6884 17.165 30.6884C16.6213 30.6884 16.1911 30.9126 15.873 31.3607C15.5562 31.8103 15.3971 32.4217 15.3971 33.1977C15.3971 33.9433 15.5493 34.5228 15.8536 34.9378C16.1566 35.3528 16.5812 35.5603 17.1235 35.5603C17.3351 35.5603 17.5315 35.5285 17.7141 35.4635C17.8953 35.3984 18.053 35.303 18.1858 35.1799V33.336H19.0987ZM21.2165 33.3111V35.8674H20.2123V30.4478H21.2165V32.9127H23.4823V30.4478H24.4783V35.8674H23.4823V33.3111H21.2165ZM26.6459 35.8674V30.8544H25.2267V30.4478H29.061V30.8544H27.6418V35.8674H26.6459ZM30.8219 35.8674H29.826V30.4478H30.8219V35.8674ZM32.2246 35.8674V30.4478H33.1445L35.9512 34.1895V30.4478H36.4325V35.8674H35.9512L32.706 31.5502V35.8674H32.2246ZM42.191 33.336V35.1633C41.8715 35.4413 41.5409 35.6502 41.1979 35.7899C40.8548 35.9296 40.4993 36.0002 40.1313 36.0002C39.3235 36.0002 38.6692 35.7388 38.1685 35.2159C37.6691 34.693 37.4188 34.0083 37.4188 33.1603C37.4188 32.3525 37.6705 31.6789 38.1754 31.1394C38.679 30.6013 39.3042 30.3315 40.0497 30.3315C40.5048 30.3315 40.8977 30.4242 41.2324 30.611C41.5658 30.7977 41.8425 31.0771 42.061 31.4492L41.7374 31.6761C41.5686 31.3469 41.3611 31.0993 41.1148 30.9347C40.8673 30.7701 40.5809 30.6884 40.2572 30.6884C39.7136 30.6884 39.2834 30.9126 38.9653 31.3607C38.6485 31.8103 38.4894 32.4217 38.4894 33.1977C38.4894 33.9433 38.6416 34.5228 38.9459 34.9378C39.2488 35.3528 39.6735 35.5603 40.2157 35.5603C40.4273 35.5603 40.6238 35.5285 40.8064 35.4635C40.9876 35.3984 41.1453 35.303 41.2781 35.1799V33.336H42.191ZM44.3088 33.3111V35.8674H43.3045V30.4478H44.3088V32.9127H46.5746V30.4478H47.5706V35.8674H46.5746V33.3111H44.3088ZM49.4076 34.083H50.9845L50.1947 32.1063L49.4076 34.083ZM48.2277 35.8674L50.4533 30.3399L52.7675 35.8674H51.6983L51.1339 34.4233H49.2665L48.7076 35.8674H48.2277ZM53.271 30.4478H54.2753V33.7206C54.2753 34.3582 54.3652 34.8023 54.5437 35.0526C54.7221 35.303 55.0236 35.4275 55.4483 35.4275C55.8716 35.4275 56.1731 35.303 56.3502 35.0526C56.5273 34.8023 56.6158 34.3582 56.6158 33.7206V30.4478H57.0971V33.9032C57.0971 34.6017 56.9381 35.1259 56.6213 35.4759C56.3032 35.8259 55.8259 36.0002 55.1882 36.0002C54.9046 36.0002 54.6322 35.949 54.3721 35.8466C54.1107 35.7443 53.8963 35.6032 53.7289 35.4247C53.5643 35.2518 53.4467 35.054 53.3762 34.8313C53.3056 34.6086 53.271 34.3001 53.271 33.9032V30.4478ZM58.5454 34.8382C58.6644 35.0651 58.8166 35.2422 59.0019 35.3694C59.1859 35.4967 59.3851 35.5603 59.5995 35.5603C59.8886 35.5603 60.1237 35.469 60.305 35.2864C60.4862 35.1038 60.5761 34.8701 60.5761 34.5837C60.5761 34.1259 60.1722 33.7316 59.3629 33.3996L59.3519 33.3955C58.9162 33.2171 58.6077 33.0151 58.4265 32.791C58.2439 32.5669 58.1526 32.2833 58.1526 31.9403C58.1526 31.47 58.3089 31.0841 58.6229 30.7839C58.9355 30.4823 59.3408 30.3315 59.8388 30.3315C60.2109 30.3315 60.5373 30.416 60.8168 30.5833C61.0962 30.7507 61.3037 30.9886 61.4393 31.2957L61.0824 31.535C60.9938 31.2819 60.8597 31.0868 60.6812 30.9513C60.5028 30.8143 60.2911 30.7465 60.0449 30.7465C59.7821 30.7465 59.5676 30.8309 59.4003 30.9997C59.2329 31.1684 59.1486 31.3884 59.1486 31.6622C59.1486 31.8781 59.2177 32.0606 59.3561 32.2128C59.493 32.3636 59.7517 32.5199 60.1307 32.6818C60.7269 32.939 61.1211 33.1839 61.3106 33.419C61.5015 33.6541 61.5969 33.9557 61.5969 34.3223C61.5969 34.8092 61.4281 35.2103 61.092 35.5257C60.7559 35.8425 60.3298 36.0002 59.8139 36.0002C59.4404 36.0002 59.1195 35.9283 58.8498 35.7857C58.5787 35.6433 58.3435 35.422 58.1443 35.1218L58.5454 34.8382Z" fill="black"/>
<path fill-rule="evenodd" clip-rule="evenodd" d="M0.95238 35.8935V32.5294H0V32.2565H2.57317V32.5294H1.62079V35.8935H0.95238ZM3.50338 35.8935H2.97424V32.0002H3.50338V34.4844H4.40565V33.5097H4.93478V35.8935H4.40565V34.6905H3.50338V35.8935ZM5.68117 33.9386C5.68117 33.7603 5.70899 33.6434 5.76472 33.5932C5.82594 33.5375 5.94291 33.5097 6.12677 33.5097H7.26294V33.7157H6.44978C6.35508 33.7157 6.28824 33.7269 6.26043 33.7548C6.22701 33.7826 6.2103 33.8327 6.2103 33.9052V34.5067H7.0736V34.7406H6.2103V35.4981C6.2103 35.5705 6.22701 35.6206 6.26043 35.6485C6.29385 35.6763 6.36623 35.6875 6.48874 35.6875H7.29081V35.8935H6.04316C5.9095 35.8935 5.81485 35.8657 5.7591 35.81C5.70899 35.7543 5.68117 35.6373 5.68117 35.4647V33.9386Z" fill="black"/>
</svg>
