<svg width="25" height="15" viewBox="0 0 25 15" fill="none" xmlns="http://www.w3.org/2000/svg">
<path d="M0.739958 1.75733H24.26C24.6564 1.75733 25 1.38076 25 0.878666C25 0.376571 24.6829 0 24.26 0H0.739958C0.343552 0 0 0.376571 0 0.878666C0 1.38076 0.343552 1.75733 0.739958 1.75733Z" fill="black"/>
<path d="M24.26 6.65253H0.739958C0.343552 6.65253 0 7.0291 0 7.53119C0 8.03329 0.317125 8.40986 0.739958 8.40986H24.26C24.6564 8.40986 25 8.03329 25 7.53119C25 7.0291 24.6564 6.65253 24.26 6.65253Z" fill="black"/>
<path d="M24.26 13.2427H0.739958C0.343552 13.2427 0 13.6192 0 14.1213C0 14.6234 0.317125 15 0.739958 15H24.26C24.6564 15 25 14.6234 25 14.1213C25 13.6192 24.6564 13.2427 24.26 13.2427Z" fill="black"/>
</svg>
